<svg height="64" viewBox="0 0 64 64" width="64" xmlns="http://www.w3.org/2000/svg"><path d="M58.667 2.667v32c0 2.388-.466 4.757-1.396 7.104-.93 2.348-2.084 4.43-3.458 6.25-1.376 1.82-3.015 3.59-4.917 5.312-1.903 1.723-3.66 3.153-5.271 4.292a66.675 66.675 0 0 1-5.041 3.23c-1.75 1.013-2.994 1.7-3.73 2.062-.736.361-1.326.64-1.77.833-.334.167-.696.25-1.084.25-.389 0-.75-.084-1.083-.25a45.801 45.801 0 0 1-1.77-.833c-.738-.362-1.98-1.049-3.73-2.062a66.65 66.65 0 0 1-5.042-3.23c-1.611-1.139-3.368-2.569-5.27-4.292-1.904-1.722-3.542-3.492-4.917-5.311-1.375-1.82-2.528-3.903-3.459-6.251-.93-2.347-1.396-4.716-1.396-7.104v-32c0-.722.264-1.348.792-1.875C6.653.264 7.278 0 8 0h48c.721 0 1.346.264 1.874.792.528.527.792 1.153.792 1.875m-8 32V8H32v47.375c3.305-1.75 6.264-3.653 8.875-5.708 6.527-5.111 9.791-10.111 9.791-15" fill="#3c8dbc"/></svg>