<svg width="200" height="200" viewBox="0 0 200 200" fill="none" xmlns="http://www.w3.org/2000/svg"><path fill-rule="evenodd" clip-rule="evenodd" d="M100 200c55.228 0 100-44.772 100-100S155.228 0 100 0 0 44.772 0 100s44.772 100 100 100z" fill="#0DBD8B"/><path fill-rule="evenodd" clip-rule="evenodd" d="M81.717 46.595c0-4.037 3.279-7.31 7.324-7.31 27.415 0 49.64 22.18 49.64 49.538 0 4.036-3.28 7.308-7.324 7.308-4.045 0-7.324-3.272-7.324-7.308 0-19.286-15.667-34.92-34.992-34.92-4.045 0-7.324-3.272-7.324-7.308z" fill="#fff"/><path fill-rule="evenodd" clip-rule="evenodd" d="M153.39 81.514c4.045 0 7.324 3.272 7.324 7.308 0 27.359-22.224 49.537-49.639 49.537-4.045 0-7.324-3.272-7.324-7.309 0-4.036 3.279-7.308 7.324-7.308 19.325 0 34.991-15.634 34.991-34.92 0-4.036 3.279-7.308 7.324-7.308z" fill="#fff"/><path fill-rule="evenodd" clip-rule="evenodd" d="M118.398 153.405c0 4.037-3.279 7.309-7.324 7.309-27.415 0-49.64-22.178-49.64-49.537 0-4.036 3.28-7.308 7.325-7.308 4.044 0 7.324 3.272 7.324 7.308 0 19.286 15.666 34.92 34.991 34.92 4.045 0 7.324 3.272 7.324 7.308z" fill="#fff"/><path fill-rule="evenodd" clip-rule="evenodd" d="M46.61 118.486c-4.045 0-7.324-3.272-7.324-7.308 0-27.359 22.224-49.537 49.64-49.537 4.044 0 7.323 3.272 7.323 7.309 0 4.036-3.279 7.308-7.323 7.308-19.326 0-34.992 15.634-34.992 34.92 0 4.036-3.28 7.308-7.324 7.308z" fill="#fff"/></svg>