<svg width="1024" height="1024" viewBox="0 0 1024 1024" xmlns="http://www.w3.org/2000/svg" xmlns:xlink="http://www.w3.org/1999/xlink"><defs><path id="f" d="M0 0h1007.833v1181.73H0z"/><path id="h" d="M0 .309h979.971v66.563H0z"/><path id="j" d="M0 .309h979.971v66.563H0z"/><path id="l" d="M0 .309h979.971v66.563H0z"/><path id="n" d="M0 .309h979.971v66.563H0z"/><path id="p" d="M0 .309h979.971v66.563H0z"/><path id="r" d="M0 .309h979.971v66.563H0z"/><path id="t" d="M0 .309h979.971v66.563H0z"/><path id="v" d="M0 .309h979.971v66.563H0z"/><path id="x" d="M0 .309h979.971v66.563H0z"/><path id="z" d="M0 .309h979.971v66.563H0z"/><path id="B" d="M0 .309h979.971v66.563H0z"/><path id="D" d="M0 .309h979.971v66.563H0z"/><path id="F" d="M0 .309h979.971v66.563H0z"/><path id="H" d="M0 .309h979.971v66.563H0z"/><path id="J" d="M0 .309h979.971v66.563H0z"/><path id="L" d="M0 .309h979.971v66.563H0z"/><path id="N" d="M0 .309h979.971v66.563H0z"/><path id="P" d="M0 .309h979.971v66.563H0z"/><path id="R" d="M0 .309h979.971v66.563H0z"/><path id="T" d="M0 .309h979.971v66.563H0z"/><path d="M211.258 211.422c-76.923 76.922-124.5 183.19-124.5 300.57 0 117.379 47.577 223.646 124.5 300.568l300.569-300.569-300.57-300.57z" id="V"/><path d="M639.447 208.782c-76.922 76.923-124.5 183.19-124.5 300.57 0 117.379 47.578 223.646 124.5 300.569l300.57-300.57-300.57-300.569z" id="W"/><mask id="c" maskContentUnits="userSpaceOnUse" maskUnits="objectBoundingBox" x="0" y="0" width="1024" height="1024" fill="#fff"><use xlink:href="#a"/></mask><mask id="d" maskContentUnits="userSpaceOnUse" maskUnits="objectBoundingBox" x="0" y="0" width="1024" height="1024" fill="#fff"><use xlink:href="#a"/></mask><mask id="X" maskContentUnits="userSpaceOnUse" maskUnits="objectBoundingBox" x="0" y="0" width="1024" height="1024" fill="#fff"><use xlink:href="#b"/></mask><circle id="a" cx="512" cy="512" r="512"/><circle id="b" cx="512" cy="512" r="512"/></defs><g fill="none" fill-rule="evenodd"><mask id="e" fill="#fff"><use xlink:href="#a"/></mask><g stroke="#FFC231" mask="url(#c)" stroke-width="40" fill="#050808"><use mask="url(#d)" xlink:href="#a"/></g><g mask="url(#e)"><g transform="translate(23.843 1.692)"><mask id="g" fill="#fff"><use xlink:href="#f"/></mask><g mask="url(#g)"><g transform="translate(0 .924)"><mask id="i" fill="#fff"><use xlink:href="#h"/></mask><path stroke="#999" mask="url(#i)" d="m28.823.309 28.822 16.64v33.282l-28.822 16.64L0 50.232V16.949zm922.326 0 28.822 16.64v33.282l-28.822 16.64-28.823-16.64V16.949zm-57.646 0 28.823 16.64v33.282l-28.823 16.64-28.822-16.64V16.949zm-57.645 0 28.823 16.64v33.282l-28.823 16.64-28.823-16.64V16.949zm-57.645 0 28.822 16.64v33.282l-28.822 16.64-28.823-16.64V16.949zm-57.646 0 28.823 16.64v33.282l-28.823 16.64-28.822-16.64V16.949zm-57.645 0 28.823 16.64v33.282l-28.823 16.64-28.823-16.64V16.949zm-57.646 0 28.823 16.64v33.282l-28.823 16.64-28.822-16.64V16.949zm-57.645 0 28.823 16.64v33.282l-28.823 16.64-28.823-16.64V16.949zm-57.645 0 28.822 16.64v33.282l-28.822 16.64-28.823-16.64V16.949zm-57.646 0 28.823 16.64v33.282l-28.823 16.64-28.822-16.64V16.949zm-57.645 0 28.823 16.64v33.282l-28.823 16.64-28.823-16.64V16.949zm-57.645 0 28.822 16.64v33.282l-28.822 16.64-28.823-16.64V16.949zm-57.646 0 28.823 16.64v33.282l-28.823 16.64-28.822-16.64V16.949zm-57.645 0 28.823 16.64v33.282l-28.823 16.64-28.823-16.64V16.949z"/><path stroke="#999" mask="url(#i)" d="m144.113.309 28.823 16.64v33.282l-28.823 16.64-28.822-16.64V16.949zm-57.645 0 28.823 16.64v33.282l-28.823 16.64-28.823-16.64V16.949z"/></g><g transform="translate(27.862 50.884)"><mask id="k" fill="#fff"><use xlink:href="#j"/></mask><path stroke="#999" mask="url(#k)" d="m28.823.309 28.822 16.64v33.282l-28.822 16.64L0 50.232V16.949zm922.326 0 28.822 16.64v33.282l-28.822 16.64-28.823-16.64V16.949zm-57.646 0 28.823 16.64v33.282l-28.823 16.64-28.822-16.64V16.949zm-57.645 0 28.823 16.64v33.282l-28.823 16.64-28.823-16.64V16.949zm-57.645 0 28.822 16.64v33.282l-28.822 16.64-28.823-16.64V16.949zm-57.646 0 28.823 16.64v33.282l-28.823 16.64-28.822-16.64V16.949zm-57.645 0 28.823 16.64v33.282l-28.823 16.64-28.823-16.64V16.949zm-57.646 0 28.823 16.64v33.282l-28.823 16.64-28.822-16.64V16.949zm-57.645 0 28.823 16.64v33.282l-28.823 16.64-28.823-16.64V16.949zm-57.645 0 28.822 16.64v33.282l-28.822 16.64-28.823-16.64V16.949zm-57.646 0 28.823 16.64v33.282l-28.823 16.64-28.822-16.64V16.949zm-57.645 0 28.823 16.64v33.282l-28.823 16.64-28.823-16.64V16.949zm-57.645 0 28.822 16.64v33.282l-28.822 16.64-28.823-16.64V16.949zm-57.646 0 28.823 16.64v33.282l-28.823 16.64-28.822-16.64V16.949zm-57.645 0 28.823 16.64v33.282l-28.823 16.64-28.823-16.64V16.949z"/><path stroke="#999" mask="url(#k)" d="m144.113.309 28.823 16.64v33.282l-28.823 16.64-28.822-16.64V16.949zm-57.645 0 28.823 16.64v33.282l-28.823 16.64-28.823-16.64V16.949z"/></g></g><g mask="url(#g)"><g transform="translate(0 902.114)"><mask id="m" fill="#fff"><use xlink:href="#l"/></mask><path stroke="#999" mask="url(#m)" d="m28.823.309 28.822 16.64v33.282l-28.822 16.64L0 50.232V16.949zm922.326 0 28.822 16.64v33.282l-28.822 16.64-28.823-16.64V16.949zm-57.646 0 28.823 16.64v33.282l-28.823 16.64-28.822-16.64V16.949zm-57.645 0 28.823 16.64v33.282l-28.823 16.64-28.823-16.64V16.949zm-57.645 0 28.822 16.64v33.282l-28.822 16.64-28.823-16.64V16.949zm-57.646 0 28.823 16.64v33.282l-28.823 16.64-28.822-16.64V16.949zm-57.645 0 28.823 16.64v33.282l-28.823 16.64-28.823-16.64V16.949zm-57.646 0 28.823 16.64v33.282l-28.823 16.64-28.822-16.64V16.949zm-57.645 0 28.823 16.64v33.282l-28.823 16.64-28.823-16.64V16.949zm-57.645 0 28.822 16.64v33.282l-28.822 16.64-28.823-16.64V16.949zm-57.646 0 28.823 16.64v33.282l-28.823 16.64-28.822-16.64V16.949zm-57.645 0 28.823 16.64v33.282l-28.823 16.64-28.823-16.64V16.949zm-57.645 0 28.822 16.64v33.282l-28.822 16.64-28.823-16.64V16.949zm-57.646 0 28.823 16.64v33.282l-28.823 16.64-28.822-16.64V16.949zm-57.645 0 28.823 16.64v33.282l-28.823 16.64-28.823-16.64V16.949z"/><path stroke="#999" mask="url(#m)" d="m144.113.309 28.823 16.64v33.282l-28.823 16.64-28.822-16.64V16.949zm-57.645 0 28.823 16.64v33.282l-28.823 16.64-28.823-16.64V16.949z"/></g><g transform="translate(27.862 952.073)"><mask id="o" fill="#fff"><use xlink:href="#n"/></mask><path stroke="#999" mask="url(#o)" d="m28.823.309 28.822 16.64v33.282l-28.822 16.64L0 50.232V16.949zm922.326 0 28.822 16.64v33.282l-28.822 16.64-28.823-16.64V16.949zm-57.646 0 28.823 16.64v33.282l-28.823 16.64-28.822-16.64V16.949zm-57.645 0 28.823 16.64v33.282l-28.823 16.64-28.823-16.64V16.949zm-57.645 0 28.822 16.64v33.282l-28.822 16.64-28.823-16.64V16.949zm-57.646 0 28.823 16.64v33.282l-28.823 16.64-28.822-16.64V16.949zm-57.645 0 28.823 16.64v33.282l-28.823 16.64-28.823-16.64V16.949zm-57.646 0 28.823 16.64v33.282l-28.823 16.64-28.822-16.64V16.949zm-57.645 0 28.823 16.64v33.282l-28.823 16.64-28.823-16.64V16.949zm-57.645 0 28.822 16.64v33.282l-28.822 16.64-28.823-16.64V16.949zm-57.646 0 28.823 16.64v33.282l-28.823 16.64-28.822-16.64V16.949zm-57.645 0 28.823 16.64v33.282l-28.823 16.64-28.823-16.64V16.949zm-57.645 0 28.822 16.64v33.282l-28.822 16.64-28.823-16.64V16.949zm-57.646 0 28.823 16.64v33.282l-28.823 16.64-28.822-16.64V16.949zm-57.645 0 28.823 16.64v33.282l-28.823 16.64-28.823-16.64V16.949z"/><path stroke="#999" mask="url(#o)" d="m144.113.309 28.823 16.64v33.282l-28.823 16.64-28.822-16.64V16.949zm-57.645 0 28.823 16.64v33.282l-28.823 16.64-28.823-16.64V16.949z"/></g></g><g mask="url(#g)"><g transform="translate(0 802.195)"><mask id="q" fill="#fff"><use xlink:href="#p"/></mask><path stroke="#999" mask="url(#q)" d="m28.823.309 28.822 16.64v33.282l-28.822 16.64L0 50.232V16.949zm922.326 0 28.822 16.64v33.282l-28.822 16.64-28.823-16.64V16.949zm-57.646 0 28.823 16.64v33.282l-28.823 16.64-28.822-16.64V16.949zm-57.645 0 28.823 16.64v33.282l-28.823 16.64-28.823-16.64V16.949zm-57.645 0 28.822 16.64v33.282l-28.822 16.64-28.823-16.64V16.949zm-57.646 0 28.823 16.64v33.282l-28.823 16.64-28.822-16.64V16.949zm-57.645 0 28.823 16.64v33.282l-28.823 16.64-28.823-16.64V16.949zm-57.646 0 28.823 16.64v33.282l-28.823 16.64-28.822-16.64V16.949zm-57.645 0 28.823 16.64v33.282l-28.823 16.64-28.823-16.64V16.949zm-57.645 0 28.822 16.64v33.282l-28.822 16.64-28.823-16.64V16.949zm-57.646 0 28.823 16.64v33.282l-28.823 16.64-28.822-16.64V16.949zm-57.645 0 28.823 16.64v33.282l-28.823 16.64-28.823-16.64V16.949zm-57.645 0 28.822 16.64v33.282l-28.822 16.64-28.823-16.64V16.949zm-57.646 0 28.823 16.64v33.282l-28.823 16.64-28.822-16.64V16.949zm-57.645 0 28.823 16.64v33.282l-28.823 16.64-28.823-16.64V16.949z"/><path stroke="#999" mask="url(#q)" d="m144.113.309 28.823 16.64v33.282l-28.823 16.64-28.822-16.64V16.949zm-57.645 0 28.823 16.64v33.282l-28.823 16.64-28.823-16.64V16.949z"/></g><g transform="translate(27.862 852.155)"><mask id="s" fill="#fff"><use xlink:href="#r"/></mask><path stroke="#999" mask="url(#s)" d="m28.823.309 28.822 16.64v33.282l-28.822 16.64L0 50.232V16.949zm922.326 0 28.822 16.64v33.282l-28.822 16.64-28.823-16.64V16.949zm-57.646 0 28.823 16.64v33.282l-28.823 16.64-28.822-16.64V16.949zm-57.645 0 28.823 16.64v33.282l-28.823 16.64-28.823-16.64V16.949zm-57.645 0 28.822 16.64v33.282l-28.822 16.64-28.823-16.64V16.949zm-57.646 0 28.823 16.64v33.282l-28.823 16.64-28.822-16.64V16.949zm-57.645 0 28.823 16.64v33.282l-28.823 16.64-28.823-16.64V16.949zm-57.646 0 28.823 16.64v33.282l-28.823 16.64-28.822-16.64V16.949zm-57.645 0 28.823 16.64v33.282l-28.823 16.64-28.823-16.64V16.949zm-57.645 0 28.822 16.64v33.282l-28.822 16.64-28.823-16.64V16.949zm-57.646 0 28.823 16.64v33.282l-28.823 16.64-28.822-16.64V16.949zm-57.645 0 28.823 16.64v33.282l-28.823 16.64-28.823-16.64V16.949zm-57.645 0 28.822 16.64v33.282l-28.822 16.64-28.823-16.64V16.949zm-57.646 0 28.823 16.64v33.282l-28.823 16.64-28.822-16.64V16.949zm-57.645 0 28.823 16.64v33.282l-28.823 16.64-28.823-16.64V16.949z"/><path stroke="#999" mask="url(#s)" d="m144.113.309 28.823 16.64v33.282l-28.823 16.64-28.822-16.64V16.949zm-57.645 0 28.823 16.64v33.282l-28.823 16.64-28.823-16.64V16.949z"/></g></g><g mask="url(#g)"><g transform="translate(0 701.316)"><mask id="u" fill="#fff"><use xlink:href="#t"/></mask><path stroke="#999" mask="url(#u)" d="m28.823.309 28.822 16.64v33.282l-28.822 16.64L0 50.232V16.949zm922.326 0 28.822 16.64v33.282l-28.822 16.64-28.823-16.64V16.949zm-57.646 0 28.823 16.64v33.282l-28.823 16.64-28.822-16.64V16.949zm-57.645 0 28.823 16.64v33.282l-28.823 16.64-28.823-16.64V16.949zm-57.645 0 28.822 16.64v33.282l-28.822 16.64-28.823-16.64V16.949zm-57.646 0 28.823 16.64v33.282l-28.823 16.64-28.822-16.64V16.949zm-57.645 0 28.823 16.64v33.282l-28.823 16.64-28.823-16.64V16.949zm-57.646 0 28.823 16.64v33.282l-28.823 16.64-28.822-16.64V16.949zm-57.645 0 28.823 16.64v33.282l-28.823 16.64-28.823-16.64V16.949zm-57.645 0 28.822 16.64v33.282l-28.822 16.64-28.823-16.64V16.949zm-57.646 0 28.823 16.64v33.282l-28.823 16.64-28.822-16.64V16.949zm-57.645 0 28.823 16.64v33.282l-28.823 16.64-28.823-16.64V16.949zm-57.645 0 28.822 16.64v33.282l-28.822 16.64-28.823-16.64V16.949zm-57.646 0 28.823 16.64v33.282l-28.823 16.64-28.822-16.64V16.949zm-57.645 0 28.823 16.64v33.282l-28.823 16.64-28.823-16.64V16.949z"/><path stroke="#999" mask="url(#u)" d="m144.113.309 28.823 16.64v33.282l-28.823 16.64-28.822-16.64V16.949zm-57.645 0 28.823 16.64v33.282l-28.823 16.64-28.823-16.64V16.949z"/></g><g transform="translate(27.862 751.275)"><mask id="w" fill="#fff"><use xlink:href="#v"/></mask><path stroke="#999" mask="url(#w)" d="m28.823.309 28.822 16.64v33.282l-28.822 16.64L0 50.232V16.949zm922.326 0 28.822 16.64v33.282l-28.822 16.64-28.823-16.64V16.949zm-57.646 0 28.823 16.64v33.282l-28.823 16.64-28.822-16.64V16.949zm-57.645 0 28.823 16.64v33.282l-28.823 16.64-28.823-16.64V16.949zm-57.645 0 28.822 16.64v33.282l-28.822 16.64-28.823-16.64V16.949zm-57.646 0 28.823 16.64v33.282l-28.823 16.64-28.822-16.64V16.949zm-57.645 0 28.823 16.64v33.282l-28.823 16.64-28.823-16.64V16.949zm-57.646 0 28.823 16.64v33.282l-28.823 16.64-28.822-16.64V16.949zm-57.645 0 28.823 16.64v33.282l-28.823 16.64-28.823-16.64V16.949zm-57.645 0 28.822 16.64v33.282l-28.822 16.64-28.823-16.64V16.949zm-57.646 0 28.823 16.64v33.282l-28.823 16.64-28.822-16.64V16.949zm-57.645 0 28.823 16.64v33.282l-28.823 16.64-28.823-16.64V16.949zm-57.645 0 28.822 16.64v33.282l-28.822 16.64-28.823-16.64V16.949zm-57.646 0 28.823 16.64v33.282l-28.823 16.64-28.822-16.64V16.949zm-57.645 0 28.823 16.64v33.282l-28.823 16.64-28.823-16.64V16.949z"/><path stroke="#999" mask="url(#w)" d="m144.113.309 28.823 16.64v33.282l-28.823 16.64-28.822-16.64V16.949zm-57.645 0 28.823 16.64v33.282l-28.823 16.64-28.823-16.64V16.949z"/></g></g><g mask="url(#g)"><g transform="translate(0 601.397)"><mask id="y" fill="#fff"><use xlink:href="#x"/></mask><path stroke="#999" mask="url(#y)" d="m28.823.309 28.822 16.64v33.282l-28.822 16.64L0 50.232V16.949zm922.326 0 28.822 16.64v33.282l-28.822 16.64-28.823-16.64V16.949zm-57.646 0 28.823 16.64v33.282l-28.823 16.64-28.822-16.64V16.949zm-57.645 0 28.823 16.64v33.282l-28.823 16.64-28.823-16.64V16.949zm-57.645 0 28.822 16.64v33.282l-28.822 16.64-28.823-16.64V16.949zm-57.646 0 28.823 16.64v33.282l-28.823 16.64-28.822-16.64V16.949zm-57.645 0 28.823 16.64v33.282l-28.823 16.64-28.823-16.64V16.949zm-57.646 0 28.823 16.64v33.282l-28.823 16.64-28.822-16.64V16.949zm-57.645 0 28.823 16.64v33.282l-28.823 16.64-28.823-16.64V16.949zm-57.645 0 28.822 16.64v33.282l-28.822 16.64-28.823-16.64V16.949zm-57.646 0 28.823 16.64v33.282l-28.823 16.64-28.822-16.64V16.949zm-57.645 0 28.823 16.64v33.282l-28.823 16.64-28.823-16.64V16.949zm-57.645 0 28.822 16.64v33.282l-28.822 16.64-28.823-16.64V16.949zm-57.646 0 28.823 16.64v33.282l-28.823 16.64-28.822-16.64V16.949zm-57.645 0 28.823 16.64v33.282l-28.823 16.64-28.823-16.64V16.949z"/><path stroke="#999" mask="url(#y)" d="m144.113.309 28.823 16.64v33.282l-28.823 16.64-28.822-16.64V16.949zm-57.645 0 28.823 16.64v33.282l-28.823 16.64-28.823-16.64V16.949z"/></g><g transform="translate(27.862 651.356)"><mask id="A" fill="#fff"><use xlink:href="#z"/></mask><path stroke="#999" mask="url(#A)" d="m28.823.309 28.822 16.64v33.282l-28.822 16.64L0 50.232V16.949zm922.326 0 28.822 16.64v33.282l-28.822 16.64-28.823-16.64V16.949zm-57.646 0 28.823 16.64v33.282l-28.823 16.64-28.822-16.64V16.949zm-57.645 0 28.823 16.64v33.282l-28.823 16.64-28.823-16.64V16.949zm-57.645 0 28.822 16.64v33.282l-28.822 16.64-28.823-16.64V16.949zm-57.646 0 28.823 16.64v33.282l-28.823 16.64-28.822-16.64V16.949zm-57.645 0 28.823 16.64v33.282l-28.823 16.64-28.823-16.64V16.949zm-57.646 0 28.823 16.64v33.282l-28.823 16.64-28.822-16.64V16.949zm-57.645 0 28.823 16.64v33.282l-28.823 16.64-28.823-16.64V16.949zm-57.645 0 28.822 16.64v33.282l-28.822 16.64-28.823-16.64V16.949zm-57.646 0 28.823 16.64v33.282l-28.823 16.64-28.822-16.64V16.949zm-57.645 0 28.823 16.64v33.282l-28.823 16.64-28.823-16.64V16.949zm-57.645 0 28.822 16.64v33.282l-28.822 16.64-28.823-16.64V16.949zm-57.646 0 28.823 16.64v33.282l-28.823 16.64-28.822-16.64V16.949zm-57.645 0 28.823 16.64v33.282l-28.823 16.64-28.823-16.64V16.949z"/><path stroke="#999" mask="url(#A)" d="m144.113.309 28.823 16.64v33.282l-28.823 16.64-28.822-16.64V16.949zm-57.645 0 28.823 16.64v33.282l-28.823 16.64-28.823-16.64V16.949z"/></g></g><g mask="url(#g)"><g transform="translate(0 501.479)"><mask id="C" fill="#fff"><use xlink:href="#B"/></mask><path stroke="#999" mask="url(#C)" d="m28.823.309 28.822 16.64v33.282l-28.822 16.64L0 50.232V16.949zm922.326 0 28.822 16.64v33.282l-28.822 16.64-28.823-16.64V16.949zm-57.646 0 28.823 16.64v33.282l-28.823 16.64-28.822-16.64V16.949zm-57.645 0 28.823 16.64v33.282l-28.823 16.64-28.823-16.64V16.949zm-57.645 0 28.822 16.64v33.282l-28.822 16.64-28.823-16.64V16.949zm-57.646 0 28.823 16.64v33.282l-28.823 16.64-28.822-16.64V16.949zm-57.645 0 28.823 16.64v33.282l-28.823 16.64-28.823-16.64V16.949zm-57.646 0 28.823 16.64v33.282l-28.823 16.64-28.822-16.64V16.949zm-57.645 0 28.823 16.64v33.282l-28.823 16.64-28.823-16.64V16.949zm-57.645 0 28.822 16.64v33.282l-28.822 16.64-28.823-16.64V16.949zm-57.646 0 28.823 16.64v33.282l-28.823 16.64-28.822-16.64V16.949zm-57.645 0 28.823 16.64v33.282l-28.823 16.64-28.823-16.64V16.949zm-57.645 0 28.822 16.64v33.282l-28.822 16.64-28.823-16.64V16.949zm-57.646 0 28.823 16.64v33.282l-28.823 16.64-28.822-16.64V16.949zm-57.645 0 28.823 16.64v33.282l-28.823 16.64-28.823-16.64V16.949z"/><path stroke="#999" mask="url(#C)" d="m144.113.309 28.823 16.64v33.282l-28.823 16.64-28.822-16.64V16.949zm-57.645 0 28.823 16.64v33.282l-28.823 16.64-28.823-16.64V16.949z"/></g><g transform="translate(27.862 551.438)"><mask id="E" fill="#fff"><use xlink:href="#D"/></mask><path stroke="#999" mask="url(#E)" d="m28.823.309 28.822 16.64v33.282l-28.822 16.64L0 50.232V16.949zm922.326 0 28.822 16.64v33.282l-28.822 16.64-28.823-16.64V16.949zm-57.646 0 28.823 16.64v33.282l-28.823 16.64-28.822-16.64V16.949zm-57.645 0 28.823 16.64v33.282l-28.823 16.64-28.823-16.64V16.949zm-57.645 0 28.822 16.64v33.282l-28.822 16.64-28.823-16.64V16.949zm-57.646 0 28.823 16.64v33.282l-28.823 16.64-28.822-16.64V16.949zm-57.645 0 28.823 16.64v33.282l-28.823 16.64-28.823-16.64V16.949zm-57.646 0 28.823 16.64v33.282l-28.823 16.64-28.822-16.64V16.949zm-57.645 0 28.823 16.64v33.282l-28.823 16.64-28.823-16.64V16.949zm-57.645 0 28.822 16.64v33.282l-28.822 16.64-28.823-16.64V16.949zm-57.646 0 28.823 16.64v33.282l-28.823 16.64-28.822-16.64V16.949zm-57.645 0 28.823 16.64v33.282l-28.823 16.64-28.823-16.64V16.949zm-57.645 0 28.822 16.64v33.282l-28.822 16.64-28.823-16.64V16.949zm-57.646 0 28.823 16.64v33.282l-28.823 16.64-28.822-16.64V16.949zm-57.645 0 28.823 16.64v33.282l-28.823 16.64-28.823-16.64V16.949z"/><path stroke="#999" mask="url(#E)" d="m144.113.309 28.823 16.64v33.282l-28.823 16.64-28.822-16.64V16.949zm-57.645 0 28.823 16.64v33.282l-28.823 16.64-28.823-16.64V16.949z"/></g></g><g mask="url(#g)"><g transform="translate(0 401.56)"><mask id="G" fill="#fff"><use xlink:href="#F"/></mask><path stroke="#999" mask="url(#G)" d="m28.823.309 28.822 16.64v33.282l-28.822 16.64L0 50.232V16.949zm922.326 0 28.822 16.64v33.282l-28.822 16.64-28.823-16.64V16.949zm-57.646 0 28.823 16.64v33.282l-28.823 16.64-28.822-16.64V16.949zm-57.645 0 28.823 16.64v33.282l-28.823 16.64-28.823-16.64V16.949zm-57.645 0 28.822 16.64v33.282l-28.822 16.64-28.823-16.64V16.949zm-57.646 0 28.823 16.64v33.282l-28.823 16.64-28.822-16.64V16.949zm-57.645 0 28.823 16.64v33.282l-28.823 16.64-28.823-16.64V16.949zm-57.646 0 28.823 16.64v33.282l-28.823 16.64-28.822-16.64V16.949zm-57.645 0 28.823 16.64v33.282l-28.823 16.64-28.823-16.64V16.949zm-57.645 0 28.822 16.64v33.282l-28.822 16.64-28.823-16.64V16.949zm-57.646 0 28.823 16.64v33.282l-28.823 16.64-28.822-16.64V16.949zm-57.645 0 28.823 16.64v33.282l-28.823 16.64-28.823-16.64V16.949zm-57.645 0 28.822 16.64v33.282l-28.822 16.64-28.823-16.64V16.949zm-57.646 0 28.823 16.64v33.282l-28.823 16.64-28.822-16.64V16.949zm-57.645 0 28.823 16.64v33.282l-28.823 16.64-28.823-16.64V16.949z"/><path stroke="#999" mask="url(#G)" d="m144.113.309 28.823 16.64v33.282l-28.823 16.64-28.822-16.64V16.949zm-57.645 0 28.823 16.64v33.282l-28.823 16.64-28.823-16.64V16.949z"/></g><g transform="translate(27.862 451.52)"><mask id="I" fill="#fff"><use xlink:href="#H"/></mask><path stroke="#999" mask="url(#I)" d="m28.823.309 28.822 16.64v33.282l-28.822 16.64L0 50.232V16.949zm922.326 0 28.822 16.64v33.282l-28.822 16.64-28.823-16.64V16.949zm-57.646 0 28.823 16.64v33.282l-28.823 16.64-28.822-16.64V16.949zm-57.645 0 28.823 16.64v33.282l-28.823 16.64-28.823-16.64V16.949zm-57.645 0 28.822 16.64v33.282l-28.822 16.64-28.823-16.64V16.949zm-57.646 0 28.823 16.64v33.282l-28.823 16.64-28.822-16.64V16.949zm-57.645 0 28.823 16.64v33.282l-28.823 16.64-28.823-16.64V16.949zm-57.646 0 28.823 16.64v33.282l-28.823 16.64-28.822-16.64V16.949zm-57.645 0 28.823 16.64v33.282l-28.823 16.64-28.823-16.64V16.949zm-57.645 0 28.822 16.64v33.282l-28.822 16.64-28.823-16.64V16.949zm-57.646 0 28.823 16.64v33.282l-28.823 16.64-28.822-16.64V16.949zm-57.645 0 28.823 16.64v33.282l-28.823 16.64-28.823-16.64V16.949zm-57.645 0 28.822 16.64v33.282l-28.822 16.64-28.823-16.64V16.949zm-57.646 0 28.823 16.64v33.282l-28.823 16.64-28.822-16.64V16.949zm-57.645 0 28.823 16.64v33.282l-28.823 16.64-28.823-16.64V16.949z"/><path stroke="#999" mask="url(#I)" d="m144.113.309 28.823 16.64v33.282l-28.823 16.64-28.822-16.64V16.949zm-57.645 0 28.823 16.64v33.282l-28.823 16.64-28.823-16.64V16.949z"/></g></g><g mask="url(#g)"><g transform="translate(0 300.68)"><mask id="K" fill="#fff"><use xlink:href="#J"/></mask><path stroke="#999" mask="url(#K)" d="m28.823.309 28.822 16.64v33.282l-28.822 16.64L0 50.232V16.949zm922.326 0 28.822 16.64v33.282l-28.822 16.64-28.823-16.64V16.949zm-57.646 0 28.823 16.64v33.282l-28.823 16.64-28.822-16.64V16.949zm-57.645 0 28.823 16.64v33.282l-28.823 16.64-28.823-16.64V16.949zm-57.645 0 28.822 16.64v33.282l-28.822 16.64-28.823-16.64V16.949zm-57.646 0 28.823 16.64v33.282l-28.823 16.64-28.822-16.64V16.949zm-57.645 0 28.823 16.64v33.282l-28.823 16.64-28.823-16.64V16.949zm-57.646 0 28.823 16.64v33.282l-28.823 16.64-28.822-16.64V16.949zm-57.645 0 28.823 16.64v33.282l-28.823 16.64-28.823-16.64V16.949zm-57.645 0 28.822 16.64v33.282l-28.822 16.64-28.823-16.64V16.949zm-57.646 0 28.823 16.64v33.282l-28.823 16.64-28.822-16.64V16.949zm-57.645 0 28.823 16.64v33.282l-28.823 16.64-28.823-16.64V16.949zm-57.645 0 28.822 16.64v33.282l-28.822 16.64-28.823-16.64V16.949zm-57.646 0 28.823 16.64v33.282l-28.823 16.64-28.822-16.64V16.949zm-57.645 0 28.823 16.64v33.282l-28.823 16.64-28.823-16.64V16.949z"/><path stroke="#999" mask="url(#K)" d="m144.113.309 28.823 16.64v33.282l-28.823 16.64-28.822-16.64V16.949zm-57.645 0 28.823 16.64v33.282l-28.823 16.64-28.823-16.64V16.949z"/></g><g transform="translate(27.862 350.64)"><mask id="M" fill="#fff"><use xlink:href="#L"/></mask><path stroke="#999" mask="url(#M)" d="m28.823.309 28.822 16.64v33.282l-28.822 16.64L0 50.232V16.949zm922.326 0 28.822 16.64v33.282l-28.822 16.64-28.823-16.64V16.949zm-57.646 0 28.823 16.64v33.282l-28.823 16.64-28.822-16.64V16.949zm-57.645 0 28.823 16.64v33.282l-28.823 16.64-28.823-16.64V16.949zm-57.645 0 28.822 16.64v33.282l-28.822 16.64-28.823-16.64V16.949zm-57.646 0 28.823 16.64v33.282l-28.823 16.64-28.822-16.64V16.949zm-57.645 0 28.823 16.64v33.282l-28.823 16.64-28.823-16.64V16.949zm-57.646 0 28.823 16.64v33.282l-28.823 16.64-28.822-16.64V16.949zm-57.645 0 28.823 16.64v33.282l-28.823 16.64-28.823-16.64V16.949zm-57.645 0 28.822 16.64v33.282l-28.822 16.64-28.823-16.64V16.949zm-57.646 0 28.823 16.64v33.282l-28.823 16.64-28.822-16.64V16.949zm-57.645 0 28.823 16.64v33.282l-28.823 16.64-28.823-16.64V16.949zm-57.645 0 28.822 16.64v33.282l-28.822 16.64-28.823-16.64V16.949zm-57.646 0 28.823 16.64v33.282l-28.823 16.64-28.822-16.64V16.949zm-57.645 0 28.823 16.64v33.282l-28.823 16.64-28.823-16.64V16.949z"/><path stroke="#999" mask="url(#M)" d="m144.113.309 28.823 16.64v33.282l-28.823 16.64-28.822-16.64V16.949zm-57.645 0 28.823 16.64v33.282l-28.823 16.64-28.823-16.64V16.949z"/></g></g><g mask="url(#g)"><g transform="translate(0 200.762)"><mask id="O" fill="#fff"><use xlink:href="#N"/></mask><path stroke="#999" mask="url(#O)" d="m28.823.309 28.822 16.64v33.282l-28.822 16.64L0 50.232V16.949zm922.326 0 28.822 16.64v33.282l-28.822 16.64-28.823-16.64V16.949zm-57.646 0 28.823 16.64v33.282l-28.823 16.64-28.822-16.64V16.949zm-57.645 0 28.823 16.64v33.282l-28.823 16.64-28.823-16.64V16.949zm-57.645 0 28.822 16.64v33.282l-28.822 16.64-28.823-16.64V16.949zm-57.646 0 28.823 16.64v33.282l-28.823 16.64-28.822-16.64V16.949zm-57.645 0 28.823 16.64v33.282l-28.823 16.64-28.823-16.64V16.949zm-57.646 0 28.823 16.64v33.282l-28.823 16.64-28.822-16.64V16.949zm-57.645 0 28.823 16.64v33.282l-28.823 16.64-28.823-16.64V16.949zm-57.645 0 28.822 16.64v33.282l-28.822 16.64-28.823-16.64V16.949zm-57.646 0 28.823 16.64v33.282l-28.823 16.64-28.822-16.64V16.949zm-57.645 0 28.823 16.64v33.282l-28.823 16.64-28.823-16.64V16.949zm-57.645 0 28.822 16.64v33.282l-28.822 16.64-28.823-16.64V16.949zm-57.646 0 28.823 16.64v33.282l-28.823 16.64-28.822-16.64V16.949zm-57.645 0 28.823 16.64v33.282l-28.823 16.64-28.823-16.64V16.949z"/><path stroke="#999" mask="url(#O)" d="m144.113.309 28.823 16.64v33.282l-28.823 16.64-28.822-16.64V16.949zm-57.645 0 28.823 16.64v33.282l-28.823 16.64-28.823-16.64V16.949z"/></g><g transform="translate(27.862 250.721)"><mask id="Q" fill="#fff"><use xlink:href="#P"/></mask><path stroke="#999" mask="url(#Q)" d="m28.823.309 28.822 16.64v33.282l-28.822 16.64L0 50.232V16.949zm922.326 0 28.822 16.64v33.282l-28.822 16.64-28.823-16.64V16.949zm-57.646 0 28.823 16.64v33.282l-28.823 16.64-28.822-16.64V16.949zm-57.645 0 28.823 16.64v33.282l-28.823 16.64-28.823-16.64V16.949zm-57.645 0 28.822 16.64v33.282l-28.822 16.64-28.823-16.64V16.949zm-57.646 0 28.823 16.64v33.282l-28.823 16.64-28.822-16.64V16.949zm-57.645 0 28.823 16.64v33.282l-28.823 16.64-28.823-16.64V16.949zm-57.646 0 28.823 16.64v33.282l-28.823 16.64-28.822-16.64V16.949zm-57.645 0 28.823 16.64v33.282l-28.823 16.64-28.823-16.64V16.949zm-57.645 0 28.822 16.64v33.282l-28.822 16.64-28.823-16.64V16.949zm-57.646 0 28.823 16.64v33.282l-28.823 16.64-28.822-16.64V16.949zm-57.645 0 28.823 16.64v33.282l-28.823 16.64-28.823-16.64V16.949zm-57.645 0 28.822 16.64v33.282l-28.822 16.64-28.823-16.64V16.949zm-57.646 0 28.823 16.64v33.282l-28.823 16.64-28.822-16.64V16.949zm-57.645 0 28.823 16.64v33.282l-28.823 16.64-28.823-16.64V16.949z"/><path stroke="#999" mask="url(#Q)" d="m144.113.309 28.823 16.64v33.282l-28.823 16.64-28.822-16.64V16.949zm-57.645 0 28.823 16.64v33.282l-28.823 16.64-28.823-16.64V16.949z"/></g></g><g mask="url(#g)"><g transform="translate(0 100.843)"><mask id="S" fill="#fff"><use xlink:href="#R"/></mask><path stroke="#999" mask="url(#S)" d="m28.823.309 28.822 16.64v33.282l-28.822 16.64L0 50.232V16.949zm922.326 0 28.822 16.64v33.282l-28.822 16.64-28.823-16.64V16.949zm-57.646 0 28.823 16.64v33.282l-28.823 16.64-28.822-16.64V16.949zm-57.645 0 28.823 16.64v33.282l-28.823 16.64-28.823-16.64V16.949zm-57.645 0 28.822 16.64v33.282l-28.822 16.64-28.823-16.64V16.949zm-57.646 0 28.823 16.64v33.282l-28.823 16.64-28.822-16.64V16.949zm-57.645 0 28.823 16.64v33.282l-28.823 16.64-28.823-16.64V16.949zm-57.646 0 28.823 16.64v33.282l-28.823 16.64-28.822-16.64V16.949zm-57.645 0 28.823 16.64v33.282l-28.823 16.64-28.823-16.64V16.949zm-57.645 0 28.822 16.64v33.282l-28.822 16.64-28.823-16.64V16.949zm-57.646 0 28.823 16.64v33.282l-28.823 16.64-28.822-16.64V16.949zm-57.645 0 28.823 16.64v33.282l-28.823 16.64-28.823-16.64V16.949zm-57.645 0 28.822 16.64v33.282l-28.822 16.64-28.823-16.64V16.949zm-57.646 0 28.823 16.64v33.282l-28.823 16.64-28.822-16.64V16.949zm-57.645 0 28.823 16.64v33.282l-28.823 16.64-28.823-16.64V16.949z"/><path stroke="#999" mask="url(#S)" d="m144.113.309 28.823 16.64v33.282l-28.823 16.64-28.822-16.64V16.949zm-57.645 0 28.823 16.64v33.282l-28.823 16.64-28.823-16.64V16.949z"/></g><g transform="translate(27.862 150.802)"><mask id="U" fill="#fff"><use xlink:href="#T"/></mask><path stroke="#999" mask="url(#U)" d="m28.823.309 28.822 16.64v33.282l-28.822 16.64L0 50.232V16.949zm922.326 0 28.822 16.64v33.282l-28.822 16.64-28.823-16.64V16.949zm-57.646 0 28.823 16.64v33.282l-28.823 16.64-28.822-16.64V16.949zm-57.645 0 28.823 16.64v33.282l-28.823 16.64-28.823-16.64V16.949zm-57.645 0 28.822 16.64v33.282l-28.822 16.64-28.823-16.64V16.949zm-57.646 0 28.823 16.64v33.282l-28.823 16.64-28.822-16.64V16.949zm-57.645 0 28.823 16.64v33.282l-28.823 16.64-28.823-16.64V16.949zm-57.646 0 28.823 16.64v33.282l-28.823 16.64-28.822-16.64V16.949zm-57.645 0 28.823 16.64v33.282l-28.823 16.64-28.823-16.64V16.949zm-57.645 0 28.822 16.64v33.282l-28.822 16.64-28.823-16.64V16.949zm-57.646 0 28.823 16.64v33.282l-28.823 16.64-28.822-16.64V16.949zm-57.645 0 28.823 16.64v33.282l-28.823 16.64-28.823-16.64V16.949zm-57.645 0 28.822 16.64v33.282l-28.822 16.64-28.823-16.64V16.949zm-57.646 0 28.823 16.64v33.282l-28.823 16.64-28.822-16.64V16.949zm-57.645 0 28.823 16.64v33.282l-28.823 16.64-28.823-16.64V16.949z"/><path stroke="#999" mask="url(#U)" d="m144.113.309 28.823 16.64v33.282l-28.823 16.64-28.822-16.64V16.949zm-57.645 0 28.823 16.64v33.282l-28.823 16.64-28.823-16.64V16.949z"/></g></g></g></g><use fill="#F1F1F1" xlink:href="#V"/><use fill="#F1F1F1" transform="rotate(-180 727.482 509.351)" xlink:href="#W"/><circle fill="#FFC231" cx="512.388" cy="512.388" r="135.118"/><path d="m840.893 783.192-34.1 36.567-214.518-200.041 34.1-36.568 214.518 200.042zM757.9 705.798l-11.032 11.831-131.524-122.648 11.032-11.831L757.9 705.798zm-23.067 24.737L723.8 742.366 592.276 619.718l11.032-11.831 131.525 122.648zm-545.34-495.657 34.1-36.568 214.518 200.042-34.1 36.567-214.518-200.041zm82.994 77.393 11.032-11.83 131.525 122.648-11.033 11.83-131.524-122.648zm23.068-24.737 11.032-11.83 131.524 122.648-11.032 11.83-131.524-122.648z" fill="#FFC231"/><path d="M816.093 100.047C731.06 37.174 625.871 0 512 0 398.303 0 293.262 37.06 208.298 99.758l196.29 201.397C436.775 284.75 473.22 275.5 511.826 275.5c38.878 0 75.564 9.381 107.92 26.003l196.346-201.456zm0 824.409C731.06 987.33 625.871 1024.503 512 1024.503c-113.697 0-218.738-37.06-303.702-99.758l196.29-201.397c32.188 16.405 68.633 25.656 107.239 25.656 38.878 0 75.564-9.382 107.92-26.004l196.346 201.456z" fill="#F1F1F1"/><use stroke="#FFC231" mask="url(#X)" stroke-width="40" xlink:href="#b"/></g></svg>