<svg xmlns="http://www.w3.org/2000/svg" width="1000" height="1000"><path fill="none" d="M-1-1h1002v1002H-1z"/><circle cx="500" cy="500" r="400"/><g fill="#FFF"><path d="M654.97 359.31c75.1 0 135.93 63.008 135.93 140.795 0 77.735-60.83 140.795-135.93 140.795H355.338c-10.714 0-19.397-8.994-19.397-20.091 0-11.097 8.683-20.091 19.397-20.091h69.818c10.663 0 19.346-8.994 19.346-20.091 0-11.097-8.683-20.091-19.346-20.091h-15.538c-10.714 0-19.396-8.994-19.396-20.091 0-11.097 8.682-20.091 19.396-20.091h46.564c10.772-.031 19.128-9.125 19.395-20.091 0-11.097-8.682-20.091-19.396-20.091H293.237c-10.714 0-19.397-8.994-19.397-20.091 0-11.097 8.683-20.091 19.397-20.091h120.241c10.772-.031 19.128-9.125 19.395-20.091 0-11.097-8.683-20.091-19.397-20.091h-27.114c-10.714 0-19.397-8.994-19.397-20.091 0-11.097 8.683-20.617 19.397-20.617l268.608.21zm-21.732 46.914c-41.738 0-75.505 35.028-75.505 78.208v31.294c0 43.232 33.767 78.207 75.505 78.207 41.688 0 75.505-34.975 75.505-78.207v-31.294c0-43.18-33.817-78.208-75.505-78.208zm25.795 73.948c10.054 0 18.229 8.468 18.229 18.881v2.42c0 10.413-8.175 18.881-18.23 18.881h-56.666c-10.054 0-18.229-8.468-18.229-18.881v-2.42c0-10.413 8.175-18.881 18.229-18.881h56.667zM294.405 600.718c10.105 0 18.229 8.415 18.229 18.881v2.42c0 10.413-8.124 18.881-18.23 18.881H227.33c-10.054 0-18.229-8.468-18.229-18.881v-2.42c0-10.466 8.175-18.881 18.229-18.881h67.076z"/><path d="M325.48 359.626c10.054 0 18.178 8.468 18.178 18.881v2.472c0 10.414-8.124 18.829-18.178 18.829h-74.895c-10.054 0-18.23-8.415-18.23-18.829v-2.472c0-10.413 8.176-18.881 18.23-18.881h74.895zm23.256 160.728c10.054 0 18.229 8.468 18.229 18.881v2.42c0 10.413-8.175 18.881-18.229 18.881h-41.13c-10.053 0-18.228-8.468-18.228-18.881v-2.42c0-10.413 8.175-18.881 18.229-18.881h41.13z"/></g></svg>