<?xml version="1.0" standalone="no"?>
<!DOCTYPE svg PUBLIC "-//W3C//DTD SVG 20010904//EN"
 "http://www.w3.org/TR/2001/REC-SVG-20010904/DTD/svg10.dtd">
<svg version="1.0" xmlns="http://www.w3.org/2000/svg"
 width="870.000000pt" height="870.000000pt" viewBox="0 0 870.000000 870.000000"
 preserveAspectRatio="xMidYMid meet">
<metadata>
Created by potrace 1.14, written by Peter Selinger 2001-2017
</metadata>
<g transform="translate(0.000000,870.000000) scale(0.100000,-0.100000)"
fill="#000000" stroke="none">
<path d="M251 8299 l0 -404 97 -83 c53 -45 113 -97 133 -115 20 -17 62 -54 94
-82 32 -27 65 -57 74 -65 9 -9 50 -45 91 -80 41 -36 84 -73 95 -83 11 -11 42
-38 69 -60 26 -23 61 -54 77 -68 15 -14 54 -48 85 -75 31 -27 66 -58 78 -69
12 -11 51 -45 86 -75 34 -30 71 -62 80 -70 9 -8 44 -38 76 -67 32 -28 71 -62
85 -75 14 -12 49 -43 78 -68 29 -25 67 -58 85 -75 18 -16 56 -50 85 -75 29
-25 63 -54 75 -65 24 -22 135 -120 176 -155 69 -60 157 -138 181 -160 15 -14
49 -43 75 -65 26 -22 57 -49 69 -60 11 -11 54 -49 95 -85 41 -36 80 -69 86
-75 6 -5 37 -32 69 -60 33 -27 69 -59 81 -70 12 -11 50 -45 85 -75 34 -30 75
-66 90 -80 15 -14 49 -44 76 -67 102 -89 200 -175 248 -218 18 -16 44 -39 57
-49 13 -11 57 -50 98 -86 41 -37 85 -76 98 -86 13 -10 36 -30 51 -44 33 -30
81 -72 186 -165 44 -38 85 -74 91 -80 6 -5 40 -35 75 -65 35 -30 73 -64 85
-75 12 -11 48 -42 80 -70 91 -79 146 -127 181 -161 18 -18 33 -30 33 -26 0 3
15 -10 34 -29 18 -19 53 -50 77 -69 23 -19 51 -44 61 -54 17 -19 18 -19 50 12
18 17 89 79 158 139 69 59 137 119 151 133 15 14 48 44 75 66 56 48 75 65 163
142 98 87 103 91 150 130 24 21 54 47 65 58 12 12 44 41 71 64 77 65 186 162
217 193 15 15 30 27 33 27 3 0 16 10 28 23 13 12 47 42 76 67 29 25 68 59 86
75 17 17 45 41 61 55 82 71 282 246 299 262 11 10 29 26 41 35 12 10 52 46 90
79 38 34 94 83 124 109 30 26 62 55 71 64 8 9 34 31 57 50 23 18 57 47 76 65
18 17 62 56 97 86 34 30 73 64 85 75 12 11 41 36 64 55 23 19 59 51 79 70 20
19 64 58 96 85 33 28 67 57 75 65 9 8 37 33 62 55 138 121 175 153 212 188 23
21 53 45 68 55 16 9 28 22 28 29 0 7 5 13 10 13 6 0 18 8 28 18 22 21 141 126
197 173 22 19 52 45 66 59 14 14 44 40 67 59 23 18 57 47 75 65 18 17 57 51
86 76 29 25 67 58 84 73 18 16 54 48 81 70 26 23 63 56 81 72 17 17 61 55 96
85 34 30 73 64 85 75 12 11 41 36 64 55 23 19 53 46 66 60 l24 25 0 398 0 398
-117 -103 c-180 -158 -184 -161 -219 -193 -18 -16 -46 -41 -62 -55 -16 -14
-55 -48 -88 -77 -32 -29 -70 -62 -84 -73 -14 -12 -41 -36 -60 -53 -19 -18 -91
-81 -160 -141 -69 -60 -156 -137 -194 -170 -88 -79 -79 -71 -166 -146 -41 -36
-80 -69 -86 -75 -6 -5 -39 -35 -74 -65 -35 -30 -76 -67 -92 -82 -16 -16 -31
-28 -34 -28 -3 0 -23 -18 -44 -39 -22 -21 -50 -47 -64 -58 -13 -10 -61 -51
-107 -92 -46 -41 -113 -99 -148 -130 -35 -31 -76 -67 -91 -81 -15 -14 -51 -45
-80 -70 -29 -25 -62 -54 -74 -65 -106 -94 -178 -157 -255 -223 -30 -26 -68
-60 -85 -75 -60 -54 -72 -65 -196 -172 -69 -60 -132 -116 -141 -124 -15 -15
-89 -80 -149 -131 -74 -63 -147 -128 -172 -152 -16 -16 -31 -28 -34 -28 -2 0
-17 -12 -32 -27 -15 -16 -59 -55 -97 -87 -39 -33 -82 -71 -96 -85 -14 -14 -48
-44 -74 -66 -27 -22 -53 -45 -59 -50 -18 -17 -159 -140 -190 -166 -15 -13 -43
-37 -60 -54 -18 -16 -57 -51 -87 -77 -74 -63 -90 -77 -167 -146 -37 -33 -80
-71 -97 -84 -16 -12 -38 -32 -47 -43 -17 -20 -17 -20 -36 0 -10 11 -45 43 -77
70 -32 28 -64 56 -71 63 -7 6 -15 12 -17 12 -3 0 -20 15 -38 33 -40 38 -116
106 -186 164 -27 24 -61 53 -75 65 -67 61 -167 148 -198 174 -19 16 -50 44
-68 62 -18 17 -35 32 -37 32 -3 0 -24 18 -47 39 -64 59 -101 92 -153 136 -26
22 -64 56 -85 75 -21 19 -62 55 -91 80 -29 25 -66 56 -80 70 -15 14 -49 43
-75 65 -26 22 -61 54 -79 70 -18 17 -48 43 -66 59 -19 16 -68 59 -109 95 -41
36 -88 78 -105 92 -16 15 -55 48 -85 75 -30 26 -63 55 -74 64 -10 8 -33 29
-50 45 -18 17 -61 55 -97 85 -35 30 -69 59 -75 65 -6 5 -34 30 -63 55 -29 25
-65 56 -79 70 -15 14 -56 50 -91 80 -35 30 -73 64 -85 75 -12 11 -48 43 -80
70 -32 28 -68 59 -80 70 -12 11 -51 45 -86 75 -35 30 -75 66 -90 80 -15 14
-47 41 -71 61 -24 21 -60 52 -80 70 -19 19 -64 59 -99 89 -35 30 -75 66 -89
79 -14 12 -46 39 -70 60 -24 20 -55 47 -70 61 -38 35 -159 141 -188 165 -14
11 -42 36 -62 55 -21 19 -60 54 -87 77 -27 22 -63 54 -81 70 -61 55 -157 138
-182 158 -14 11 -37 31 -51 45 -14 14 -54 50 -90 80 -36 30 -67 57 -70 61 -3
3 -26 24 -52 48 l-48 44 1 -404z"/>
<path d="M250 4711 l0 -2511 25 -5 c24 -5 69 -15 90 -21 6 -1 44 -10 85 -19
112 -25 203 -45 225 -51 11 -2 40 -9 65 -14 125 -25 349 -81 383 -95 42 -18
94 -82 102 -129 5 -27 18 -849 15 -916 -1 -14 -2 -29 -1 -35 0 -14 10 -740 10
-837 l1 -78 1100 0 1100 0 0 113 c1 242 9 2030 15 3100 4 995 3 1130 -10 1143
-8 9 -15 14 -15 11 0 -2 -25 20 -55 50 -31 29 -57 53 -59 53 -3 0 -17 12 -33
28 -25 24 -87 79 -253 226 -30 27 -62 55 -70 63 -8 7 -29 26 -45 41 -17 15
-67 59 -110 99 -44 39 -102 91 -129 115 -27 23 -60 52 -72 63 -12 12 -53 48
-90 80 -37 33 -76 69 -88 80 -12 11 -57 52 -101 90 -44 39 -94 84 -111 100
-18 17 -61 55 -95 85 -34 30 -74 66 -88 79 -14 12 -57 51 -95 85 -64 56 -126
112 -180 161 -12 11 -55 49 -96 85 -40 36 -88 79 -106 95 -19 17 -46 41 -62
55 -15 14 -61 54 -101 90 -88 78 -95 85 -201 180 -46 41 -93 84 -106 95 -12
11 -40 36 -61 55 -22 19 -72 64 -112 100 -40 36 -85 76 -100 90 -15 14 -56 50
-90 80 -35 30 -75 66 -90 80 -15 14 -60 54 -100 90 -40 36 -86 76 -101 90 -15
14 -58 52 -95 85 -37 33 -74 66 -81 73 -12 11 -14 -384 -14 -2497z"/>
<path d="M8378 7157 c-76 -70 -188 -172 -214 -194 -44 -38 -147 -129 -178
-158 -18 -16 -68 -61 -112 -100 -106 -95 -131 -117 -186 -167 -26 -24 -55 -50
-65 -58 -18 -16 -55 -49 -212 -190 -46 -41 -93 -83 -105 -93 -38 -33 -170
-151 -198 -178 -16 -15 -59 -53 -95 -85 -37 -33 -86 -75 -108 -96 -49 -44
-146 -131 -199 -178 -21 -19 -50 -45 -63 -57 -13 -13 -25 -23 -27 -23 -2 0
-21 -17 -43 -37 -21 -21 -67 -63 -102 -93 -35 -30 -75 -66 -90 -80 -14 -14
-82 -75 -150 -135 -69 -61 -139 -123 -156 -140 -18 -16 -60 -55 -95 -85 -35
-30 -76 -66 -90 -80 -15 -14 -60 -54 -100 -90 -40 -36 -94 -83 -119 -106 -25
-23 -95 -85 -156 -139 -60 -54 -117 -105 -126 -114 -9 -9 -38 -34 -64 -56 -26
-22 -58 -51 -71 -65 l-24 -25 5 -1128 c3 -621 7 -1133 10 -1137 3 -5 1 -11 -5
-15 -6 -4 -8 -11 -4 -16 5 -8 10 -684 14 -1911 l0 -128 1100 0 1100 0 1 78 c0
42 2 244 5 447 2 204 6 584 9 845 3 261 7 482 9 490 12 56 69 136 88 124 4 -3
8 -1 8 4 0 5 10 13 23 16 21 6 255 61 301 70 11 3 30 7 41 10 11 3 103 24 205
46 102 23 190 43 195 44 6 1 26 6 45 10 19 4 43 10 53 12 16 5 17 133 17 2510
0 1377 -3 2504 -7 2504 -5 0 -34 -24 -65 -53z"/>
</g>
</svg>
